<svg fill="currentColor" class="w-full" viewBox="0 0 926 300"><path d="M921.389 145.66a2.768 2.768 0 00-.8-.817 2.833 2.833 0 00-3.263.077 13.21 13.21 0 00-4.063 4.46c-2.017 3.6-3.46 6.2-4.327 7.8-3.27 3.84-6.297 6-9.06 6.14a11.82 11.82 0 01-7.739-2.42c-2.397-1.48-3.332-2.66-2.824-3.52 5.647-9.186 8.478-16.373 8.491-21.56 0-16.333-5.159-24.506-15.479-24.52-10.943 0-20.693 6.5-29.252 19.5a76.908 76.908 0 00-8.329 16.9c-4.632 6.48-7.679 10.9-9.06 13.2a81.76 81.76 0 01-9.751 8.54 27.699 27.699 0 003.433-10.4c1.239-7.06 1.544-12 .914-14.68a54.4 54.4 0 00-5.099-11.7 690.273 690.273 0 00-6.419-10.96v-.36c0-1.24 1.199-3.36 3.596-6.32a14.123 14.123 0 003.575-8.74c0-2.84-1.835-5.313-5.505-7.42h-1.524c-3.941 0-8.633 3.02-14.098 9.1v4c.025 1.697.479 3.36 1.321 4.84a46.69 46.69 0 001.706 3.34c-2.519 3.467-4.55 6.5-6.094 9.1-3.758 6.56-5.912 10.46-6.399 11.7-2.032 2.86-3.596 5.02-4.733 6.5a17.052 17.052 0 00-.874 2c-3.819 5.44-6.44 9.22-7.801 11.28-8.423 8.8-14.585 13.2-18.485 13.2a11.364 11.364 0 01-3.027-.66c-1.382-.42-2.032-.76-2.174-1.02-.142-.26-.406-.52-1.036-.84-.63-.32-.934-.52-.934-.64 0-6.2 3.114-14.006 9.344-23.42a137.377 137.377 0 0117.064-21.74l.569-.54a5.646 5.646 0 001.493-1.92c.35-.739.534-1.544.538-2.36 0-3.22-1.381-4.84-4.063-4.84a12.063 12.063 0 00-5.85 1.86c-1.545 1-3.279 1.68-5.099 2a19.5 19.5 0 01-8.288-.18 78.823 78.823 0 004.327-7.06 22.309 22.309 0 002.458-9.46 7.769 7.769 0 00-2.316-5.1 6.668 6.668 0 00-2.253-1.818 6.77 6.77 0 00-2.826-.701 18.652 18.652 0 00-12.371 4.739 14.063 14.063 0 00-4.048 4.813 13.82 13.82 0 00-1.518 6.067c0 4.58.264 7.34.813 8.26.548.92 1.076 1.76 1.625 2.5a9.148 9.148 0 001.726 1.86c-4.997 8-8.985 14.414-11.965 19.24-2.979 4.827-4.78 7.707-5.403 8.64v.14c-2.925 4.3-5.018 7.36-6.196 9.14-8.044 8.414-16.407 13.08-25.088 14a25.937 25.937 0 01-11.132-3.34c-3.9-1.973-5.979-4.573-6.236-7.8a14.199 14.199 0 010-4.84 128.268 128.268 0 0115.479-6.68 44.263 44.263 0 0016.251-12c4.526-4.946 7.074-11.342 7.171-18a9.023 9.023 0 00-1.007-4.026 9.194 9.194 0 00-2.71-3.174 12.31 12.31 0 00-8.126-3.02c-9.304 0-17.43 4.4-24.377 13.2a57.578 57.578 0 00-7.008 11.4 63.186 63.186 0 00-5.262 4c-5.281 4.28-9.446 6.4-12.452 6.4a2.62 2.62 0 01-1.193-.437 2.57 2.57 0 01-.839-.943 4.525 4.525 0 01-.955-2.32 7.143 7.143 0 01.183-1.68c1.646-3.72 3.332-7.5 5.099-11.34a37.273 37.273 0 003.596-11.88 49.238 49.238 0 00-.569-10 6.39 6.39 0 00-2.678-2.139 6.494 6.494 0 00-3.416-.461c-3.142 0-6.481 3.72-10.015 11.16-3.007 6.3-4.591 10.9-4.713 13.74-.244 7.56.122 12.52 1.138 14.86a7.382 7.382 0 01-.955 2.6 92.531 92.531 0 01-5.648 9.48c-5.417 7.56-9.635 12.454-12.655 14.68-.122 0-.285-.6-.467-1.78-.183-1.18-.346-1.76-.468-1.76.11-.614.171-1.236.183-1.86.264-2.46.508-4.7.752-6.68a98.436 98.436 0 01-.792-20.24c.121-2.96-.001-7.18-.183-12.62 0 .12-.508-2.92-1.524-9.1a32.274 32.274 0 00-1.32-6.88 5.225 5.225 0 00-2.008-1.564 5.297 5.297 0 00-2.522-.436c-2.885 0-4.327 2.04-4.327 6.12a16.15 16.15 0 00.284 3.08c.183 1.04.833 4.3 2.032 9.74a48.27 48.27 0 011.137 9.1v26.2c.244 1.12.589 3.84 1.036 8.18.363 2.652.519 5.326.467 8 .386 1.24.752 2.54 1.138 4 .386 1.74 1.056 2.6 2.031 2.6 1.768 0 3.84-1.26 6.237-3.8 2.397-2.54 4.652-5.04 6.785-7.52a102.083 102.083 0 0016.251-22.12c.874 1.74 3.21 2.6 6.988 2.6 2.844 0 8.126-2.3 15.886-6.9a61.585 61.585 0 00-1.361 12.86 18.77 18.77 0 002.272 9.304 19.126 19.126 0 006.585 7.036 30.311 30.311 0 0017.937 4.84c10.956 0 21.398-5.14 31.325-15.42a41.575 41.575 0 006.216-8.92c.223-.4.386-.76.568-1.16.293-.256.546-.552.752-.88l4.164-6.32c4.063-6.813 7.395-12.7 9.995-17.66a38.332 38.332 0 013.027-3.9c4.738.888 9.604.888 14.342 0-9.602 14.36-14.715 22.08-15.338 23.16a46.508 46.508 0 00-6.399 21.74c0 6.054 4.023 9.087 12.067 9.1a16.134 16.134 0 003.393-.38c7.049-.56 14.626-4.76 22.711-12.5a14.443 14.443 0 003.433 8.98 11.762 11.762 0 004.292 3.089 11.922 11.922 0 005.235.911 31.885 31.885 0 007.354-1.86 9.104 9.104 0 005.464 1.3 35.608 35.608 0 0017.369-5.38 51.17 51.17 0 0012.635-9.48v4c3.413 8 8.194 12 14.342 12 5.553 0 11.904-2.726 19.055-8.18a45.03 45.03 0 007.374-6.68c.752-1.36 1.178-2 1.32-2a20.284 20.284 0 004.896 3.36 21.123 21.123 0 0011.701 2 18.295 18.295 0 007.272-2.5 20.917 20.917 0 005.932-4.38 56.869 56.869 0 007.943-13.74c1.002-2.333 1.002-4.12 0-5.36zm-228.9-17.08c4.011-4.385 9.521-7.161 15.48-7.8.751-.12 1.625.3 2.64 1.3a3.992 3.992 0 011.504 2.4c0 .64 0 1-.183 1.12a35.812 35.812 0 01-11.132 15.14 67.38 67.38 0 01-17.552 9.26c-.508-.12-.629-.56-.386-1.3a9.234 9.234 0 00.569-1.68c0-6.093 3.02-12.24 9.06-18.44zm65.005-16.72a16.436 16.436 0 01-3.108 4.46c-2.031-1.12-3.026-2.42-3.026-3.9 0-6.2 2.519-9.1 7.556-8.74.262.719.386 1.478.366 2.24a12.896 12.896 0 01-1.788 5.94zm58.587-4.28c.507 0 .771 0 .771.18a7.316 7.316 0 01-.73 3.489 7.442 7.442 0 01-2.296 2.751 8.542 8.542 0 01-.955-4.26c0-1.42 1.077-2.16 3.21-2.16zm-7.171 64.84a18.986 18.986 0 01-9.893-4 17.517 17.517 0 00-8.857-3.48 45.6 45.6 0 004.408-6.82c.65-1.2 1.178-2.32 1.645-3.38a18.016 18.016 0 004.774-6.28l.752-1.3c1.259-2.98 2.153-5.08 2.641-6.32 2.397-4.22 4.225-7.3 5.484-9.3a16.033 16.033 0 012.377-3.34c1.503 1.12 3.386 4.127 5.647 9.02a32.304 32.304 0 013.393 9.38c.054 17.227-4.07 25.834-12.371 25.82zm61.328-5.2c-4.463 4.534-10.571 7.138-16.983 7.24-2.397 0-3.575-3.34-3.575-10 0-9.413 3.9-19.26 11.701-29.54a33.529 33.529 0 016.399-6.5c-1.625 6.8-1.876 12.06-.752 15.78a37.396 37.396 0 006.988 14.12l2.255 2.6a54.239 54.239 0 01-6.033 6.3zm14.22-19.54c-1.016 2-2.031 3.74-2.824 5.24-4.403-4.898-6.825-11.218-6.805-17.76 0-6.34 1.381-10.96 4.063-13.82a13.952 13.952 0 002.031-.94 5.132 5.132 0 012.174-.74c1.259 0 2.031.12 2.255.38l2.031 2.42c.508.24.955 3.3 1.341 9.16.199.92.261 1.863.183 2.8.02 1.36-1.504 5.8-4.51 13.26h.061zM489.583 61.332c.22-.76.396-1.534.529-2.314.288-.911.478-1.85.568-2.8l-.02-.219a6.222 6.222 0 00.14-2.561 2.55 2.55 0 01.057-.969c.137-.755.421-1.24.581-1.957a5.912 5.912 0 00-.07-.797c-.021-.24-.021-.24.111-.351.133-.112.018.199.015.16-.004-.04.115-.312.194-.339a.592.592 0 00.113-.331c-.03-.339.084-.67.116-.994.033-.324-.017-.199-.014-.16.004.04.216-.319.312-.388.082-.209.152-.423.209-.64a309.45 309.45 0 001.375-4.736c.11-.13.104-.43.169-.617.065-.186-.023-.26.095-.31.118-.05.184-.457.257-.785.281-.967.564-1.915.866-2.885.117-.291.047-.847.217-1.002.127-.184.2-.399.21-.621-.046-.518.104-.21.171-.135.068.074.158-.295.24-.523.188-.639.422-1.22.632-1.841.299-.99.7-1.767.947-2.893l.882-2.465c.113-.572.222-1.184.5-1.268a5.44 5.44 0 00.53-1.612l-.014-.159a.972.972 0 00.21-.62c-.025-.28-.048-.538.047-.848.069-.829-.088-.996-.346-.913l-.129.151c-.08.248-.249.182-.312.63-.062.447.018.199.023.258.006.06-.129.152-.161.014 0 0-.293.387-.399.798-.106.41.058.657-.145.434-.203-.224-.121.01-.166.195a1.948 1.948 0 00-.206.44c.018.198.039.438-.087.63-.126.19-.021-.24-.122-.231l-.162.014a3.992 3.992 0 00-.238.542.85.85 0 01.02.22c.037.418.06.677-.194.578a.145.145 0 00-.121.01s-.121.011-.166.196a2.284 2.284 0 00-.077.75c.013.038.017.079.011.119l-.009-.1a.392.392 0 00-.324.028c-.237.316-.4.68-.476 1.065-.101.009-.161.255-.228.422l-.135.312c-.19.157-.313.61-.471.904-.157.295.012.14.018.2l.021.239c.065.737.065.737-.237.542 0 0 .03.339-.096.53-.069.608-.181.719-.331.41-.218.22-.351.51-.376.816.049.558-.078.73-.269.645-.707 1.467-1.351 3.169-2.052 4.695a18.002 18.002 0 00-.936 2.088c-.241.536-.437 1.09-.588 1.657-.472 1.346-1.002 2.496-1.428 3.898a7.298 7.298 0 00-.138.976 3.56 3.56 0 01-.295 1.049c-.031-.359.116-.532.137-.755.021-.222-.028-.319-.119-.19a2.108 2.108 0 01-.135.313 6.238 6.238 0 00-.604 1.698c-.107.241-.194.49-.26.745-.101.01-.097.29-.165.436a14.606 14.606 0 01-.516 1.55c-.41.941-.733 1.917-.965 2.915a469.07 469.07 0 00-1.504 4.888 39.361 39.361 0 00-1.254 4.264.323.323 0 00.016.18c-.075.528-.173 1.038-.25 1.546 1.841-.159 3.703-.32 5.581-.301.467-1.406.796-2.98 1.19-4.52zm80.493 27.92a3.17 3.17 0 01-.069-.778 2.033 2.033 0 00-.044-.498l-.129-1.454c-.122.01-.222-.202-.057-.638a2.383 2.383 0 00-.058-.657 1.576 1.576 0 01-.127-1.435.959.959 0 00-.039-.438l-.8-5.573a12.193 12.193 0 00-.134-1.514l-.037-.418a1.775 1.775 0 00-.044-.498c-.121.01-.159.275-.177.537.108-.632.076-.99-.09-1.016-.165-.026-.139-.189-.044-.498.1-.712-.058-.658-.228-.964-.17-.307.114-1.014-.022-1.404l-.066-.737a.187.187 0 00.01-.081.182.182 0 00-.024-.078c-.243.242-.384.033-.456-.543l-.017-.2c-.024-.32.032-.642.161-.937.03-.22.01-.445-.058-.657-.056-.638-.275-1.261-.44-1.97l-.047-.538a1.022 1.022 0 01-.043-.478 2.794 2.794 0 00-.037-.418c-.288-1.18-.542-2.443-.866-3.56-.25.163-.25.163-.051-.577a2.466 2.466 0 00-.079-.897c-.101.009-.154-.127-.14-.43.014-.302-.066-.737-.094-1.055a4.42 4.42 0 01-.079-.897c-.053-.598.05-.587.209-.4a.708.708 0 00.524-.527c-.01-.12.123-.231.174-.336a1.785 1.785 0 00.185-1.602c-.034-.378-.207-.725-.32-1.076a13.302 13.302 0 00-1.167-3.272 1.154 1.154 0 01-.209-.524 1.726 1.726 0 00-.331-.976c-.156-.147-.358-.13-.526-.175-.167-.046-.22-.182-.246-.48-.027-.3-.212-.785-.403-.87-.191-.083.242-.02.263-.484-.011-.12-.102.009-.138-.169-.046-.518-.288-.718-.553-.494-.266.224-.029-.319-.023-.259.103-.671-.08-.896-.122-1.375l-.253-.78a.593.593 0 00-.129-.31s-.182.015-.187-.266c-.004-.28-.044-.498-.191-.545a.35.35 0 01-.019-.22.938.938 0 00-.307-.696 3.777 3.777 0 01-.454-.984 1.991 1.991 0 00-.454-.985.19.19 0 00.008-.071.167.167 0 00-.021-.069s-.113-.13-.144-.248l-.243.02c-.101.01-.31.188-.257-.6-.011-.119.085-.187-.028-.318l-.011-.12a1.4 1.4 0 00-.517-1l-.016-.178c-.015-.18-.142-.229-.193-.345-.051-.116-.101.009-.014-.16-.06-.677-.327-.694-.517-.999l-.278-.377a1.588 1.588 0 01-.447-.905c-.015-.16-.152-.328-.253-.32-.101.01-.324.028-.456-.08-.132-.11.182-.016.237-.322.054-.306-.027-.3-.153-.348a1.707 1.707 0 01-.428-.686c-.046-.518-.289-.497-.447-.664l-1.053-1.535a2 2 0 00-.88-1.19c-.202-.664-.551-.694-.828-1.052a1.438 1.438 0 01-.432-.505.675.675 0 00-.153-.348 16.12 16.12 0 00-1.255-1.277.474.474 0 01-.387-.227c-.373.172-.733.244-1.035-.172l-.029-.319c-.015-.179.001 0 .102-.008a.378.378 0 00-.021-.24l-.495-.519a1.082 1.082 0 00-.306-.455 2.593 2.593 0 00-.895-.445 13.62 13.62 0 00-2.566-.883c-.03-.338-.273-.317-.437-.323l-5.745-.628a1.61 1.61 0 00-.445.038s-.121.01-.166.195c-.977.015-1.95.1-2.914.252l-.162.014a1.567 1.567 0 00-.734.146 1.54 1.54 0 00-.578.47l-.959.684c-.107.17-.18.498-.291.628.076-.529-.037-.418-.148-.288-.202.21-.443.381-.71.503a4.91 4.91 0 00-1.048.833c.025.279 0 0-.131.132 0 0-.184.216-.267.204a2.06 2.06 0 00.065.737c-.282-.197-.558-.314-.864-.086-.306.227-.218.3-.321.288 0 0-.185.217-.266.224-.091.35-.167.637-.321.51s-.273.144-.41.437c-.138.293-.281.747-.465.742a.885.885 0 01-.599-.088c-.223.019-.436.138-.635.657s.176.145.207.263l.014.16c-.011-.12-.119-.191-.162.014-.182.477-.306.227-.445.038s-.324.028-.493.424c-.169.396-.222.943-.416 1.06-.019-.22.252-.383.134-.795l-.223.02c-.081.006-.289.647-.455.38-.203.018-.257-.138-.182-.667.035-.356.092-.71.171-1.059a26.558 26.558 0 011.2-3.717c.134-.441.197-.9.186-1.361.198.163.344-.03.487-.484.143-.454.397-.817.633-.677.237.14.249-.182.342-.511.033-.2.015-.406-.052-.598l.323-.028c.109-.15.218-.3.34-.31.22-.177.414-.383.578-.613l.258-.303a5.79 5.79 0 00.379-.555c.338-.45.752-.838 1.224-1.15a1.339 1.339 0 00.817-.672c-.01-.12.122-.01.192-.137.091-.128.182-.016.267-.204.086-.188.109-.39.246-.222l.142-.012a.443.443 0 00.089-.37.656.656 0 00.014.16l.243-.02.405-.036c.264-.244.526-.045.791-.51s.229-.18.331-.17c.103.012.304-.025.426-.257a12.301 12.301 0 012.964-1.3.7.7 0 00.775-.227c.128-.172.256.118.405-.035.15-.154.178.165.304-.027.776-.261 1.59-.4 2.41-.409.393-.014.785-.048 1.174-.101l.182-.016.648-.056c.222-.019.162-.014.201-.258.04-.244-.024-.279-.148-.288a3.248 3.248 0 01-.481-.14c.282.021.558.093.814.211.235.12.486-.042.67.424.069-.367.136-.533.271-.385a.431.431 0 00.539.095l.668-.058c.222-.02.101-.009.021.239a.742.742 0 00.018.2c.042.143.132.27.256.358.348.19.746.274 1.143.243.587-.05 1.12.445 1.697.516.175.125.396.327.593.25.197-.078.81-.07 1.215-.105 0 0 .182-.016.186.265a1.6 1.6 0 00.163.688.326.326 0 00.303.195c.303.183.649.285 1.005.295.182-.016.376.108.521-.567-.02-.22.141-.012.212-.139.07-.127.182-.016.148-.394l-.679-.986a1.258 1.258 0 00-.549-.675s-.121.01-.135-.149a1.867 1.867 0 00-.89-1.067s-.122.01-.158-.167c-.036-.178-.101.008-.157-.168-.057-.175-.241-.18-.339-.372a.937.937 0 00-.654-.706l-.162.014a12.417 12.417 0 00-1.783-1.713 2.06 2.06 0 00-.7-.08c-.162.014-.304.026-.38.555-.075.528-.111.35-.179.276-.068-.075-.171.135-.266.224-.094.088-.247-.26-.201-.666.045-.405.206-.198.301-.287.094-.088.468-.24.688-.059.22.182.202-.017.126-.412a4.554 4.554 0 00-.555-.515c-.943-.741-1.882-1.443-2.843-2.163-.019-.22-.202.017-.281-.177-.272-.317-.564-.613-.904-.544-.018-.2-.203.018-.301-.175a3.285 3.285 0 01-1.298-.61s-.13-.09-.203.017c-.072.107-.432.178-.627.054a3.259 3.259 0 00-.982-.035s.126-.192.194-.117c.067.074.303-.026.465-.04.162-.014.101-.01.122-.232.021-.223-.017-.2-.021-.239-.003-.04-.222.02-.326-.233a2.697 2.697 0 00-1.123-.244l-.202.017a8.25 8.25 0 00-3.971.062 14.24 14.24 0 01-2.336.564 3.597 3.597 0 00-1.633.442l-1.199.284c-.129.152-.242-.2-.372.173-.13.372-.247.663-.453.641-.206-.022-.306-.234-.506.044l-.263.023a32.21 32.21 0 00-3.284 2.29c-.186.198-.364.032-.527.488-.164.456.012.14-.093.109a1.295 1.295 0 00-.543.548c-.098.27-.242.021-.337.33a2.017 2.017 0 00-1.012 1.012l-2.096 2.349a.409.409 0 00.014.16c-.079.488-.268.424-.378.795-.11.37-.202.48.056.637-.266.445-.505.044-.759.407a8.566 8.566 0 00-.225 1.144c-.03-.339-.04-.458-.155-.368a1.27 1.27 0 00-.28.747c-.076.75-.216.782-.383.515l-.294.587a.634.634 0 00-.139.273c-.151.596-.415.84-.572 1.375-.156.535-.154.334-.235.341-.465.04-.959.445-1.422.284l-.142.012s-.142.012-.178.297c-.036.284.02.219.022.239.001.02-.132.352-.237.321l-.142.012a.245.245 0 00-.263.023 3.17 3.17 0 00-.86 1.34c-.156.314-.313.608-.491.905a.34.34 0 00.018.2c-.215.339-.317 1.251-.618 1.076-.301-.174-.162.015-.224.24l-.109.15a.434.434 0 00-.137.293c.044.499.044.499-.171.377a1.32 1.32 0 00-.318.55.897.897 0 00-.164.214 2.315 2.315 0 00-.316.81c.042.479-.13.835-.336.812-.206.25-.348.544-.413.86l-.164.455a10.412 10.412 0 00-.407 1.621c-.037.266-.133.521-.28.747-.213.36-.425.037-.597.634l-1.254 2.879a.903.903 0 00-.116.29c-.02.135-.057.266-.109.392l.013.14c.021.238.012.139-.148.173a1.711 1.711 0 00-.247.663 3.734 3.734 0 01-.453 1.565 6.687 6.687 0 00-.4 1.701c.095-.77.095-.77-.091-1.036a3.774 3.774 0 00-.592 1.376c.044.498-.087 1.092-.35 1.115l-.618 1.539a1.579 1.579 0 00-.279.767c.027.298.134.129.141.208.007.08-.273 1.068-.379 1.017-.107-.051-.142.012-.223.019a5.51 5.51 0 00-.522 1.47 15.995 15.995 0 01-.5 1.49c-.212.374-.342.79-.382 1.217a.909.909 0 01-.157.756c-.201.255-.31.568-.309.89l.032.359a4.48 4.48 0 00-.328 1.594c-.024-.279-.047-.538-.162-.227a3.303 3.303 0 01-.299.548.608.608 0 00.018.2c.039.437.161.206.233.32.071.115-.295.126-.334.611-.038.485-.078.73-.107 1.094-.028-.32-.055-.618-.152-.108-.021-.239.112-.571-.051-.577a1.639 1.639 0 00-.264.705c-.94 3.434-1.768 6.979-2.641 10.467a88.172 88.172 0 0111.724 2.059 3.909 3.909 0 00-.037-.418.347.347 0 01-.013-.14l-.014-.16c-.005-.06.137-.533.207-.66l-.018-.199c.017-.107.049-.211.095-.31.041-.26.114-.517.218-.76l.122-.011a2.557 2.557 0 01-.048-.538l-.012-.14s.09-.128.084-.429a.365.365 0 01-.012-.14c-.014-.159-.023-.258.088-.388.11-.13-.009-.1 0 0l.014.16a73.16 73.16 0 01-.039-.44c.016-.106.048-.21.095-.308l-.013-.14-.026-.299c.012-.206.064-.408.151-.595a.238.238 0 01-.016-.18c.016-.156.058-.308.123-.452l-.009-.1c.142-.011.142-.011.057.638.018.2.033.379-.05.587a1.348 1.348 0 01-.103.45l.011.12c-.056.387-.138.77-.245 1.145-.122.01-.181.498-.226.903-.046.406-.282 1.19-.413 1.783-.072.454-.169.905-.289 1.35l.502.137c0-.134-.012-.267-.035-.399.111.111.208.284.348.251.14-.032.217-.32.322-.51.106-.19.471-1.124.714-1.607.194-.372.35-.762.468-1.165a1.05 1.05 0 00-.05-.557.656.656 0 00.376-.133c.149-.221.252-.469.303-.729-.038-.418-.203.018-.264-.218.523-.306.536-.388.591-1.376.014.16.231.301.385-.033a3.16 3.16 0 00.239-.985c.101-.009.133.35.234.341.101-.008.203-.238.239-.522a1.007 1.007 0 00-.019-.22c-.073-.816-.073-.816.266-.906.339-.09.387-.696.382-1.217.182-.016.442.162.415-.84.235-.34.491-.443.704-.341a.956.956 0 00.301-.508l-.051-.578c-.018-.199.231.08.385-.033.112-.124.21-.26.29-.407.479-.804.938-1.606 1.428-2.291a119.084 119.084 0 013.087-4.282c.656-.88 1.345-1.622 1.989-2.641a1.22 1.22 0 00.119-.492c.064-.668.189-.64.359-.553.171.085.237.14.357.11.563-.551 1.142.924.926.783-.217-.142-.122.01-.141.253-.019.242.018.199.026.299l.009.1c.31-.075.634-.069.94.018.142-.012.283-.024.397.107.113.13 0 0 .014.159l.016.18.012.139.11.09c.11.091.122-.01.214-.118.112.162.264.294.442.383.009.1 0 0 .111.111.142-.012.217.142.316.334l.01.12a55 55 0 00.942 1.424l.173.346a.437.437 0 00.196.365c.226.36.417.74.57 1.135 0 0 .174.126.204.465l.023.259.01.12.011.119s.212.323.288.718c.076.395.009.1.009.1s.142.228.184.465c.041.237.039.438.201.665.163.227.023.26-.076.288-.1.029 0 0 .009.1s-.149.394-.21.4a.385.385 0 01-.341-.172l-.112-.11a2.252 2.252 0 01-.044-.499l-.014-.16-.445.04c-.162.013-.151-.088-.198-.164-.048-.077-.374-.31-.599-.31-.224 0-.283.024-.398-.126a.434.434 0 01-.022-.24l-.012-.139-.014-.16-.223.02-.182.016c-.04.003 0 0-.117.29 0 0-.141-.208-.208-.282a.431.431 0 00-.296-.115l.171.085.017.2c.018.199.015.159-.085.188-.099.028-.142.012-.222.019l-.425.037a1.763 1.763 0 00-.885.377c.016.18 0 0-.121.01-.121.011 0 0-.133.112-.122.232-.203.239-.288.206a4.583 4.583 0 00-1.112 1.02c.009.1-.106.19-.167.195-.06.005 0 0-.11.13-.111.13-.205.218-.313.388l-.132.112c.01.12.008.1 0 0a.143.143 0 00-.009-.1c.033.076.04.16.021.24l.012.139c.021.239 0 0-.107.17l.009.1c-.117.29-.206.439-.304.487a4.974 4.974 0 00-.496.846c-.041.14-.09.28-.147.415l-.102.23c-.063.152-.139.3-.226.44 0 0-.09.129-.142.233l-.121.01c.02.14.033.28.037.42.019.218-.092.349-.13.372-.039.023-.168.175-.263.484-.095.31-.122.473-.193.358a5.6 5.6 0 01-.118.974c-.192.82-.407 1.621-.559 2.658l-.117.753.04.459c-.003-.04.122-.01.2-.279.078-.267-.011-.12-.009-.1.041.136.054.279.037.42l-.012-.14a.736.736 0 01.081-.47c.105-.189.132-.352.196-.317.064.034.012.14.014.16a1.47 1.47 0 00.12-.252l-.017-.2c-.018-.199.187-.417.263-.484l.187-.417a18.141 18.141 0 012.036-3.95 13.6 13.6 0 012.391-1.552 2.183 2.183 0 011.082-.214c.43-.006.856.075 1.253.237a3.15 3.15 0 011.054.708 5.191 5.191 0 011.305 2.075c.358.813.583 1.516.893 2.252l.182-.016c.36.936.643 1.898.846 2.878.226 1.165.575 2.34.718 3.492.142 1.152.38 2.677.697 3.955.028.191.045.384.051.578.176 1.992.486 3.873.738 5.798.252 1.926.321 3.627.482 5.44.12 1.354.076 2.703.09 4.007.005.38.038.76.1 1.136.25 1.713.349 3.444.296 5.174l.1 1.136c.057.376.09.755.101 1.135a8.183 8.183 0 00.043 1.864c.129 1.454.158 2.937.127 4.426l-.006 1.546-.004 3.634c.118 1.335.056 2.706.049 4.011.053.37.086.743.099 1.116.047 12.042-.499 25.44-1.73 39.158.022.138.034.278.037.418.039.439-.044.887-.086 1.333l.019.219-.224 3.452-.145 1.358-.271 2.694c-.07.588-.1 1.173-.192 1.743-.092.57-.115 1.234-.14 1.879a27.603 27.603 0 01-.393 3.848 3.836 3.836 0 00-.095.531l-.119 1.194a9.82 9.82 0 01-.145 1.358l-.145 1.117-.106.651a488.286 488.286 0 01-1.438 9.54l-.253 1.528-.773 4.624a312.545 312.545 0 01-1.36 7.666c-.232 1.285-.528 2.555-.825 3.806a98.02 98.02 0 00-.881 4.091c-.18.959-.451 2.047-.741 2.915l-.264 1.167c-.049.32-.123.635-.222.943-.642 1.501-.864 3.367-1.506 4.868a4.12 4.12 0 00-.252 1.066 5.571 5.571 0 01-.572 2.057 22.22 22.22 0 00-1.157 3.975c.028.318-.198.759-.23 1.084a10.056 10.056 0 01-.972 3.075 7.1 7.1 0 00-.505 1.429 15.883 15.883 0 01-1.143 2.989 5.164 5.164 0 00-.285.688 18.033 18.033 0 01-1.052 2.861c-.7 1.767-1.466 3.479-2.268 5.235a27.6 27.6 0 01-4.125 6.841 19.668 19.668 0 01-1.431 1.569c-.184.096-.374.18-.57.25l-.363.273a3.954 3.954 0 01-2.442.973l-1.457.126c-.185.217-.377.354-.542.328-.055-.617-.023-.259-.143-.228-.03-.229.005-.462.104-.672.206-.439.409-.678.6-1.055a1.36 1.36 0 01.394-.617c.084-.297.225-.575.416-.819a.4.4 0 00.123-.231c.123-.328.264-.648.424-.96 0 0 .154.127.223-.02.069-.146-.021-.239-.039-.438l-.017-.199c.126-.096.233-.214.315-.349-.025-.21.013-.422.109-.611 0 0 .02.219.131-.132.112-.351.057-.507.095-.771.019-.147.054-.292.105-.431l.082-.449a4.047 4.047 0 00-.06-.677l-.04-.458-.039-.439-.023-.259c.046-.626.13-1.296.167-2.022.051-.302.085-.606.103-.912.123-.7.308-1.387.552-2.055.099-.27.203-.701.298-1.01.012.14.137-.293.186-.658a1.79 1.79 0 01.212-.601l.08-.248c0 .258-.046.513-.137.755 0 0 .109-.15.162-.476l.117-.753a.478.478 0 01-.018-.199c-.014-.159-.026-.299.123-.452l-1.158.28c-.168.396-.339.773-.523 1.23a.61.61 0 01-.137.293l-.567 1.193s-.101.009-.108.391l.01.12c.023.259-.087.168-.115.311l-.389.676c.027.299-.137.293-.182.477-.044.185-.103.21-.152.355a1.554 1.554 0 00-.108.391l.02.219.023.259.019.219c.016.269.006.539-.031.806a5.543 5.543 0 01-.367 1.838.539.539 0 01-.222.019.21.21 0 01-.011-.119c.06.677-.103.912-.217 1.002-.114.091 0 0-.162.014s0 0 .009.1a.753.753 0 01-.071.347 2.87 2.87 0 01-.16.496l-.295.588a.573.573 0 01-.122.231c-.048.205-.16.391-.32.53 0 0-.145.213-.215.339-.07.127-.101.009-.127.172-.027.163 0 0 .01.12a2.629 2.629 0 00-.382.514c.012.14-.204.46-.291.407a2.47 2.47 0 00-.404.497c-.129.392-.227.2-.333.39a1.903 1.903 0 01-.887.799l-.142.012c-.142.013 0 0-.131.132s-.243.021-.306-.234a.337.337 0 01.019.219c.009.1.011.119 0 0-.009-.1-.019-.219-.183-.225l.011.119a.648.648 0 01.023.259l.012.14c-.129.152-.223.019-.324.028a6.613 6.613 0 01-.911.078 3.11 3.11 0 01-.624-.146c-.122.01-.263.022-.399-.127a.889.889 0 01-.229-.281c-.012-.139-.101.009-.113-.131-.013-.139-.122.011-.136-.149-.014-.159-.131.132-.132-.109l-.831-1.092s-.101.009-.124-.25a1.528 1.528 0 01-.265-.459c-.012-.14-.019-.22-.144-.249a2.312 2.312 0 01-.451-.945c-.147-.509-.337-.814-.476-1.464l-.023-.259a1.12 1.12 0 01.117-.512c.013.139.011.119.142-.013.131-.131.198.164.28.398.082.234.172.105.24.18.068.074 0 0 .02.219-.093.57-.138.293-.193.358-.055.065.121-.011.202-.018.081-.007.016.18.162-.014l.013.14.238.16c.427.3.93.479 1.453.517l.182-.016a5.57 5.57 0 01-.577-.994 1.376 1.376 0 01-.03-.339 4.648 4.648 0 00-.184-.466 2.76 2.76 0 01-.248-1.183c.061-.392.06-.792-.003-1.184a2.548 2.548 0 01-.051-.578l.128-1.316a.266.266 0 00-.011-.119l.102-.009c.101-.009-.009-.1.086-.409.095-.309-.013-.14.127-.172a1.708 1.708 0 011.457-.126l.607-.052c.203-.018 0 0 .014.159 0 0 .187-.196.243-.021.057.176.211-.158.224.222a1.19 1.19 0 01-.016-.179c-.025-.279-.016-.18.098-.27 0 0 .034.379.126.27a.514.514 0 01.097-.289.855.855 0 00.089-.148.392.392 0 01-.023-.259c-.02-.219-.101.008-.132-.109l-.035-.399a.39.39 0 01-.443-.162c.011.119.101-.009.019.219-.081.228.016.179-.105.19-.122.01-.157-.388-.286-.237l-.122.011-.323.028c-.122.01-.223.019-.325-.213l-.011-.12-.304-.214c-.011-.12-.117-.171-.203.017 0 0 .085-.429-.019-.219-.104.21-.106.19-.129.152-.052-.578.095-.31.158-.516 0 0-.122.011-.211.38l-.014-.16-.029-.318a1.03 1.03 0 01-.433-.063.566.566 0 01-.29-.276.613.613 0 01-.018-.2 86.906 86.906 0 01-15.614.064 88.595 88.595 0 01-15.531-2.673c.068.418.159.833.273 1.241.231-.16.054-.547.169-.858-.103.672-.036.967.193 1.028.23.06.192.324.057.637a.977.977 0 00-.094.329c-.062.247-.039.506.066.738l.028.318a.718.718 0 00.032.359l.182-.016s.039.439.136.39c.098-.049.165.247.05.558-.115.311.032.359.046.518.01.442.111.877.297 1.279l.014.16a.154.154 0 00.01.119.117.117 0 00.073.016.121.121 0 00.069-.028c.162-.014.304-.026.215.584l.055.617s.175.367.068.777a.455.455 0 00.016.18l1.789 2.234c.121-.01.303-.026.322.414l.062.697a.91.91 0 00.021.239c.012.14.188.285.288.257.099-.029.198.163.051.577l.041.459c.02.118.064.23.131.33.162-.014.324-.028.359.37a2.982 2.982 0 00-.163.697c.105.687.344 1.348.703 1.947.011.119.344-.492.172.326a.422.422 0 00.016.18c.06.178.13.352.209.524.192.798.507 1.563.935 2.268 0 0 .023.259.143.228.119-.03.254.34.291.758l.028.319c.011.119.165.247.236.361.072.114.381.389.607-.053.043.479-.144.675-.174 1.019a1.124 1.124 0 00.421.847c.304-.026.489.219.586.853.017.199.023.259.135.149.113-.11.284-.024.421.144.137.169-.207.199-.195.559.011.361.009.1.014.16a.79.79 0 01.19.305c.3-.528.447.443.739.056.035.399-.195.559-.202.941.062.153.137.301.223.443l1.148 1.908c.039.273.186.519.407.688a.263.263 0 00.124.018.266.266 0 00.119-.039c.4-.316.525.396.664 1.047.103.09.189.198.252.319.297.818.758.958 1.145 1.407a13.78 13.78 0 002.969 2.675c.011.119.142-.013.223-.02.081-.007.012.14.017.2.006.059.175.125.284-.025.109-.15.586-.051.87-.075.283-.025.132.109.032.359l-.122.01a.3.3 0 00.027.299s.141-.012.194.124c.237.21.523.358.834.43.404.108.82.166 1.238.174.122-.011.183-.016.041.458-.142.474.021.239.021.239a.125.125 0 00.142-.012c.151-.596.333-.611.506-.506.172.106.121-.01.162-.014.04-.003-.359-.129-.387.696l.012.14c.002.02.223-.02.35-.191.128-.172.023.259.027.299.003.039.113.13.182-.016a.514.514 0 01.624.147l.849.368a.37.37 0 00.014.159c.306.235.66.084.948.34.309.069.627.089.943.059l.291-.165c.33-.19.543.374.85.388.307.014.217.142.262-.264.046-.405-.014-.159-.017-.199.339.145.708.209 1.077.188-.142.012.033.379-.093.57-.125.192.009.1.013.14.003.04.303-.027.382.167.078.194.227.262.339.373.111.11-.132.131-.205.218-.074.087-.183.016-.23.401-.047.386.142-.012.217.142.074.155-.275-.337-.426-.425-.101.009-.202.018-.273.365a.412.412 0 00.014.16c-.153-.349-.445.038-.656-.265-.21-.303-.425.037-.627.054l-.012-.139c-.013-.14-.02-.219-.141-.209l-1.692.006a9.038 9.038 0 00-4.07.09s-.183.016-.286.226c-.104.21-.049.606-.214.58-.165-.025-.156-.147-.263.023l.014.16c-.109.611-.115 1.234-.204 1.844-.041.281-.015.567.075.837.225.536.278 1.127.15 1.693.082.665.405 1.278.907 1.729l.594.712c.061.173.151.335.266.478a13.907 13.907 0 001.764 1.494c-.191-.084-.393-.066-.562-.132a14.988 14.988 0 01-4.164-.965l-.656-.265c-.016-.179-.263.023-.343-.191-.08-.214-.182.016-.198-.163l-.445.038c-.162.014-.416.136-.567.049.162-.014.354.311.508-.486-.023-.259-.126-.27-.212-.323-.087-.052-.462-.14-.698-.281a1.352 1.352 0 00-.872-.627.278.278 0 01-.239.035.287.287 0 01-.179-.159c-.142.012-.261.283-.283.727.013.139.156.147.176.366.454.761.975 1.482 1.557 2.154a3.752 3.752 0 001.431 1.422c.17.07.306.202.379.369.245.274.527.513.838.711.126.27.286.236.438.343l2.484 1.793c.032.359.243-.021.363.19.121.21.304-.026.426.204.018.199.263-.023.382.168.187.182.407.326.649.426.377.093.758.167 1.142.222.581.141 1.169.251 1.762.33.864.086 1.721.092 2.582.138.303-.026.582.13.89-.077.061-.06.117-.125.167-.195a.442.442 0 00.15-.374.279.279 0 00-.016-.18.725.725 0 01.538.315c.01.12.154.128.243-.021.088-.148-.022-.239-.029-.318.26.399.612.228.911.383.299.154.243-.021.37-.193a.303.303 0 01.168-.067.304.304 0 01.177.037 5.209 5.209 0 002.398-1.01l.121-.01c.122-.011.598.068.896-.479a3.523 3.523 0 011.084-.656c.242-.021.518-.366.767-.548.292-.273.621-.504.979-.687-.013-.14.121-.011.173-.115.052-.105.121-.252.168-.176.048.077.223-.019.325-.248.102-.23.389-.436.592-.453.202-.018.546-.047.815-.693.122-.01.243-.021.34-.31l.766-.789c.142-.012.221-.501.346-.693a.51.51 0 00.162-.475l-.014-.16c-.002-.02.263-.023.385-.033.121-.011.45-.44.466-1.406a.206.206 0 00.016.18c.192.087.397.143.607.168a4.28 4.28 0 00.791-2.578c-.034-.378.165-.897-.103-1.155-.267-.258-.017-.2-.028-.319-.01-.12-.133-.35-.258-.379-.125-.03-.202.017-.192-.325.024-.19.1-.37.219-.521.126-.191.239-.302.363-.513.124-.211.328-.209.453-.641l1-.91c.085-.188.229-.18.29-.406.062-.227.101-.009.162-.014l.105-.19c-.033-.379.094-.55.24-.523.145.028.115.151.213.102l1.427-1.609c.122-.01.232-.14.333-.39a25.25 25.25 0 011.624-2.148 4.288 4.288 0 001.034-1.454.952.952 0 00.272-.385c.088-.148.155-.315.255-.343a9.75 9.75 0 001.482-2.136c.304-.488.606-.996.929-1.486a.65.65 0 00.265-.464c.211-.189.354-.441.405-.718.264-.668.469-1.358.613-2.061-.018-.199.187-.417.091-.59-.097-.172-.198-.384-.298-.134-.1.249-.363.272-.535.407-.171.135-.399.557-.604.775.161-.717.451-1.123.59-1.858.139-.735.226-.903.438-1.041.109-.146.191-.309.242-.483.09-.369.183-.699.358-.794a23.33 23.33 0 001.038-2.097c.145-.218.234-.467.262-.726l-.062-.697c.182-.016.385-.033.566-.29l-.011-.119c-.044-.498.102-.692.293-.608l.109-.15c.112-.172.192-.362.236-.562-.035-.399-.027-.299.134-.333.16-.034.171.327.267-.204.026.299-.068.609-.062.909.006.301-.061 1.15-.362 1.216-.3.066-.125.191-.174.336a.829.829 0 00.018.199c.049.558-.177.538-.304.709a7.757 7.757 0 00-.818 1.818c.032.358-.1.711-.149 1.076-.053.281-.027.57.074.837.017.2.214.343.384-.033.24-.256.396-.577.449-.922.629-1.42 1.293-2.662 1.893-4.179.055-.527.178-.758.358-.794.104-.145.18-.308.222-.481-.019-.219.135-.553-.058-.657-.193-.104 0 0-.009-.1-.008-.099.215.122.286-.225.11-.522.355-1.006.712-1.407.218-.284.37-.613.445-.962 0-.06-.005-.12-.016-.179a125.97 125.97 0 01-.06-.678c-.025-.278.188.285.317.134a.377.377 0 00-.014-.16 1.587 1.587 0 01.414-1.079l.176-.317c.373-.731.688-1.49.941-2.269a.572.572 0 00-.014-.16c.225-.682.483-1.226.653-2.064.171-.838.253-1.748.466-2.57-.1.281-.143.578-.127.874.122-.01.203-.479.333-.39.37-.722.645-1.488.818-2.279-.034-.378-.071-.797.24-.743a.907.907 0 00.172-.356c.353-1.075.694-2.068 1.021-3.2 1.418-4.48 2.814-8.977 3.969-13.895-.137.755-.277 1.47-.396 2.203-.119.733-.12 1.174-.148 1.779a3.957 3.957 0 01-.609 1.88c-.385 1.398-.722 2.893-1.037 4.406a9.506 9.506 0 01-.138 1.658l-.046-.518c-.127.24-.214.498-.258.765-.213.821-.424 1.663-.659 2.466a47.789 47.789 0 00-.765 2.877c.03.339-.171.597-.225.903a3.12 3.12 0 01-.343 1.655 5.194 5.194 0 00-.491 1.83l-.047-.538a3.012 3.012 0 00-.364.955c.06.677-.123 1.375-.208 2.025-.034-.378-.223.02-.316-.113-.093-.132-.187.197-.252.383.001.054.006.107.014.16-.111.35-.225.682-.358 1.014l.016.18.019.219c-.03.174-.049.35-.055.527-.095.771-.318 1.252-.597 1.316a.768.768 0 00-.112.351c.021.239.044.498-.038.726-.081.228-.014-.16-.135-.149-.122.01 0 0-.107.17a1.36 1.36 0 01-.207.66c-.147.414-.314.83-.463 1.225-.148.394-.15.836-.354.833a1.47 1.47 0 00-.314.83.34.34 0 00.028.319c-.141.012-.252.142-.298.548-.045.405-.147.635-.293.607-.145-.027-.112.111-.166.196l-.107.169c-.209.179-.304.709-.456 1.064a3.726 3.726 0 00-.524 1.229 11.424 11.424 0 01-.643 1.481c-.403.661-.73 1.362-.977 2.092l.012.14a1.46 1.46 0 00-.36.774l-.936 2.088c.018.2-.123.453-.23.402-.106-.051-.125.191-.194.338a.376.376 0 00.018.199c.004.28.028.56.074.837-.273-.318-.384-.188-.563.55a.878.878 0 01-.224.461.887.887 0 00-.234.583.412.412 0 01-.208.419c-.323.301-.57.673-.719 1.086-.137.293-.255.343-.374.153-.119-.191-.242.262-.344.491l.018.2c.061.697.063.717-.218.54a7.171 7.171 0 00-.986 1.752.435.435 0 00-.137.293c.03.339-.123.693-.194 1.041-.071.347-.234.582-.431.659.125-.432.388-.455.274-1.047a.869.869 0 01-.194.338 1.446 1.446 0 00-.477.824c-.116.532-.207 1.122-.467.944-.228.421-.438 1.041-.692 1.404a9.561 9.561 0 00-1.235 2.858c-.017.43-.074.859-.172 1.279.081.917-.141 1.859-.183 2.767.02.118.031.238.032.358.033.379.051.578.26.64.21.062.132.109.202-.017.071-.127.259.158.222.663l.011.12c.067.314.096.635.085.956a.502.502 0 01.014.159c.016.18-.108.391-.17.617-.081.203-.151.41-.21.621.032.358.065.737-.109 1.073-.174.337-.263.023-.392.175-.129.151-.292.386-.209.861a2.68 2.68 0 01-.798.43c.01.12-.13.152-.192.137-.062-.014-.121.011-.159.275-.038.264.127.29.056.638-.071.347-.404.035-.607.052-.41.387-.768.822-1.068 1.297a.661.661 0 01-.317.328 2.7 2.7 0 00-1.065 1.096 2.026 2.026 0 00-1.006.85c-.536.436-1.046.903-1.528 1.397a.833.833 0 00-.182.939c.162-.014.423-.518.42.365a3.6 3.6 0 002.398-1.01c.207-.66.443-1.223.751-1.189.309.034.349.251.521.356.173.106.227-.2.34-.31l2.77-2.568c.111-.13.223-.019.318-.329l.374-.373a.88.88 0 00.64-.377l.17-.155-.014-.159c-.059-.658-.062-.698.21-.621.272.077.263-.023.393.067.13.089.242-.262.371-.414.353-.26.644-.594.852-.977.066-.262.117-.528.153-.796-.008-.1-.03-.339.075-.308.105.031.458-.361.668-.058-.019-.219.162-.014.24-.281a.576.576 0 00-.016-.18c-.044-.498.038-.726.204-.459.167.267.141.209.22.182.079-.027.299-.307.445-.5.586-.754 1.139-1.645 1.7-2.456.23-.406.52-.776.861-1.098 0 0 .149-.154.182-.016.001.169-.032.335-.099.49-.11.371-.27.646-.374 1.077-.105.43-.051.807-.262.725a.146.146 0 00-.122.011.445.445 0 00-.164.214 69.556 69.556 0 01-2.997 4.837c-.452.661-.91 1.243-1.374 1.986l-.335.591c-.202.72-.055.988.109 1.235.243-.021.43.244.682.102.253-.143.101-.009.129-.152.029-.143.415-.156.285-.928.027.299-.028-.319.126-.192.154.128.255.119.375.088.12-.03.243-.02.28-.526.036-.505-.016-.179-.018-.199l.014.16c.014.159.243-.021.269-.184.063-.668.195-.338.277-.325.083.013.025.279.152.328.126.049.243-.021.352-.392l.44-.56c1.11-1.28 2.199-2.8 3.31-4.301.296-.231.504-.553.592-.915.107-.17.189-.397.309-.428.283-.196.476-.494.538-.829l-.044-.498.016.179c.16-.496.296-1.029.556-.851.448-.701.916-1.404 1.351-2.245.122-.252.214-.515.277-.787.135-.554.26-.524.41-.437l.307-.448c.42-.543.752-1.148.983-1.791.102-.161.189-.33.261-.505.198-.455.424-.897.679-1.323.32-.395.551-.853.676-1.343.201-.52.443-1.025.723-1.508.316-.455.554-.957.704-1.487a2.68 2.68 0 00-.039-.438c-.04-.458.107-.411.202-.258 0 0 .211-.601.328-.892a.73.73 0 00-.023-.259l-.052-.598c-.022-.239.181.205.3.175.332-.606.59-1.248.769-1.913a4.127 4.127 0 01.384-1.881c.295-.125.432-.418.358-1.255.297.135.446-.26.524-.989.024-.192.076-.379.155-.555-.015-.16 0 0 0 0 .04.458.213.102.242-.021.165-.469.265-.957.3-1.452-.046-.518.09-.59.224-.461.134.129.011.12.162-.014.461-1.244.863-2.684 1.319-3.988.268-.6.459-1.23.568-1.876l-.013-.14c1.266-4.125 2.425-8.541 3.537-13.014a398.29 398.29 0 001.937-8.519 3.98 3.98 0 00.096-.53c.012-.201.049-.4.111-.592a16.23 16.23 0 00.65-3.248c.113-.793.25-1.548.408-2.304.114-.268.185-.552.211-.842.211-1.062.377-2.18.567-3.261a24.72 24.72 0 01.874-3.95c.478-.583.672-.239.579 1.014.032.359-.078.73-.107 1.093-.13 1.296-.3 2.596-.41 3.89a18.673 18.673 0 01-.476 4.298 2.816 2.816 0 00.07-1.512 13.455 13.455 0 00-.352 1.777c-.085.65-.216 1.243-.347 1.837a7.59 7.59 0 00-.359 1.697 4.45 4.45 0 00-.199.981 102.75 102.75 0 01-1.136 4.897 5.536 5.536 0 00-.392 1.559c-.351.874-.512 2.052-.791 3.04-.326 1.393-.697 2.73-1.084 4.109a3.472 3.472 0 00-.34 1.234.84.84 0 01-.094.309 10.357 10.357 0 00-.654 2.285l-.925 3.372c.012.3-.017.599-.084.891-.135 1.015-.121 1.175.243 1.364.376-.815.671-1.865 1.021-2.738.421-.953.75-1.943.983-2.956a27.22 27.22 0 01-.025-.279c.331-.73.565-1.499.694-2.288.261-.966.548-1.874.858-2.744a1.183 1.183 0 00-.024-.279c-.041-.459.229-.863.124-1.356.181.426.329-.43.465-.281.22-.28.326-.229.266.479l.066.737a11.148 11.148 0 01-.426 2.325 11.68 11.68 0 00-.492 2.05 17.083 17.083 0 00-.725 2.633c-.287 1.129-.633 2.062-.961 3.195-.168.306-.27.642-.299.989a2.138 2.138 0 00-.309.89c-.019.421-.063.841-.133 1.256a30.23 30.23 0 01-.03-.338l.012.139a2.576 2.576 0 01-.638 1.782s-.14.253-.158.515c-.262.726-.238 1.687-.481 2.391-.073-.817-.073-.817-.218-.383 0 0-.109.15-.157.295a14.373 14.373 0 00-.987 3.358c-.04.213-.021.434.056.637.181.205.364-.031.517-.386.152-.354.678-1.323 1.007-1.974.122-.011.173-.356.232-.602.732-1.87 1.442-3.759 2.173-5.629.23-.397.385-.832.457-1.284-.01-.12-.019-.219.08-.248a.673.673 0 00.147-.414c.045-.451.114-.899.207-1.343a.592.592 0 00.037.418s-.035-.398.11-.37c.146.027 0 0-.01-.12.078-.268.129-.613.264-.705l.094-.31-.068-.777c-.027-.299.035.399.183.225.5-1.488 1.002-2.957 1.484-4.424.091-.135.161-.283.206-.44.318-1.011.632-2.062.923-3.151.312-.952.574-1.92.784-2.899.034-.253.101-.502.199-.739.09-.209.146-.431.166-.657a.576.576 0 01-.025-.279 2.69 2.69 0 00.29-1.109c.603-2.401 1.207-4.782 1.79-7.182.282-.812.481-1.65.594-2.5.046-.312.114-.619.204-.921.287-.919.504-1.857.649-2.807.043-.352.114-.701.213-1.042.311-1.009.533-2.043.664-3.089.129-.339.221-.69.275-1.048.389-1.82.712-3.695 1.08-5.534l-.02-.219c-.021-.239-.044-.498.119-.733l-.018-.199c-.023-.259.077-.509.137-.755.06-.246.12-.713.192-1.06.196-1.463.411-2.947.606-4.429-.038-.439.105-.893.167-1.34.063-.447.116-.994.155-1.479.27-2.472.583-4.929.812-7.398-.021-.239.061-.467.08-.709.02-.243-.01-.12-.009-.1.002.02.162-.014.2-.278.047-.254.072-.512.075-.77-.167.416-.112-.11-.02-.219a.58.58 0 01-.017-.199.674.674 0 00.03.339c.012.139.161-.014.241-.262.137-1.217.295-2.435.433-3.631.249-2.029.436-4.053.725-6.086a8.2 8.2 0 01.076-.99c.214-2.187.511-4.361.644-6.54.071-.81.12-1.637.23-2.47l-.022-.239a45.789 45.789 0 01-.019-.219c-.005-.06.155-1.017-.088-.996-.243.021-.183.698-.212 1.062-.029.364-.046.627-.079.951a1.767 1.767 0 00-.133.573c.381-2.382.489-4.84.868-7.242.108-.707.14-1.423.096-2.136a6.031 6.031 0 01.05-1.049c.138-.975.158-1.9.216-2.849.087-2.015.11-3.824.205-5.74.07-.513.072-1.032.006-1.546a10.83 10.83 0 01.045-1.57 2.183 2.183 0 00-.062-.697c.002-1.125.161-2.323.066-3.399.067-.48.086-.966.055-1.45-.013-.045-.017-.093-.013-.139-.021-.24.074-.549.031-.806.368-1.293.88-2.543 1.526-3.726a12.44 12.44 0 00.222-1.866c-.055-.617.013-1.226.003-1.807l-.149-5.127-.035-.398c-.214-.343-.083-.937-.007-1.465.018-.508.007-1.016-.033-1.523-.138-1.554-.272-3.068-.194-4.721.201-.259.23-.161.181.667a.532.532 0 00.023.259c.134.129.358.129.08.896-.003.448.037.895.118 1.335.083.825.21 1.645.381 2.457.081.916.263 1.824.25 2.829a.51.51 0 00.032.358c.011.12.159.187.263-.022a.432.432 0 00-.014-.16c-.025.866-.051 1.731-.057 2.575l.015.179c.006.06.234.101.153.569-.081.469.042.479-.056.748.029 1.483.25 2.829.37 4.184.214 2.411.31 4.872.332 7.42a7.84 7.84 0 00.043 1.642c.045.46.052.923.021 1.384a10.96 10.96 0 00.035 1.784c.048.538.089.996-.004 1.566-.066 2.013-.109 3.824-.067 5.687l.043.478c.014.16.202-.017.172.568-.094 1.233-.27 2.472-.304 3.7.018.199.034.379-.05.587-.066.869-.111 1.736-.175 2.625a14.588 14.588 0 00-.09 2.437 102.711 102.711 0 01-.442 6.061c.053.597-.135 1.236-.203 1.844-.357 3.805-.713 7.611-1.131 11.401a26.229 26.229 0 00-.148 2.482c-.019.348.012.697.092 1.036.02.219.182-.016.324-.028a2.67 2.67 0 00-.162.476c.023.259.02.219.13.31a.448.448 0 00.708-.061c.255-.352.475-.727.655-1.121.101-.009.119-.271.165-.436a.718.718 0 00-.015-.179 9.046 9.046 0 00.676-2.488c.091-.59.203-1.162.294-1.752.855-5.073 1.505-10.168 2.065-15.356.297-2.635.533-5.266.809-7.9l.338-3.783c.272-2.915.266-5.745.44-8.611a2.073 2.073 0 00-.062-.697c.068-2.917.136-5.834.226-8.733.043-1.81.028-3.596.11-5.43.106-.854.125-1.717.057-2.575-.085-.956.046-2.011.105-2.96l-.016-.179a1.327 1.327 0 00-.042-.478s-.142.012-.183.236c.05-.171.069-.349.055-.526-.021-.24-.051-.578.139-.735.19-.157-.021-.239-.032-.359-.044-.498.072-.568.216-.56l.222-.02c.122-.01.263-.022.258.38l.021.239c-.003-.04.19.304.239.621.048.318.182-.015.267.258.086.274.142-.012.023.259a5.248 5.248 0 00-.108 1.536c-.008.267.016.535.07.797.013.139.161-.255.243-.021-.1.296-.155.605-.163.917l.044.498c.037.815.15 1.626.337 2.42.29-.406.527-.266.712.22.145-.569.244-1.148.296-1.732.178-1.441.233-2.891.349-4.347a1.532 1.532 0 01-.025-.279c.166-1.532.227-3.073.182-4.613-.022-.455-.014-.912.022-1.367.119-.853.131-1.717.037-2.573.045-2.714.07-5.427.043-8.034-.002-1.867-.025-3.732-.047-5.597a5.526 5.526 0 00-.133-1.495 1.864 1.864 0 01-.049-.557 4.301 4.301 0 00-.062-.698 4.65 4.65 0 01-.079-.896 47.743 47.743 0 00-.244-5.28l-.033-.378-.094-1.056c-.032-.359 0 0-.121.01.174-.336-.055-.617.079-.95l-.296-4.712a13.336 13.336 0 00-.157-1.774c.193-1.213.309-2.437.349-3.664zm-25.912-75.88c-.263.023-.526.046-.739-.056l.739.057zm-72.408 234.565s.142-.013.209-.179c-.093.329-.135.092-.209.179zm25.243 41.405a.742.742 0 01-.465.04l.546-.047-.162.014.081-.007zm32.457-38.741s.13-.152.187-.197c.057-.045-.202.259-.268.204l.081-.007zm29.74-73.78s-.112.11-.081.007l.081-.007zm.212-2.669c-.087.851-.153 1.72-.2 2.568-.073-.817.035-1.67.119-2.561l.081-.007zM430.396 78.471c6.963-.601 12.115-6.646 11.508-13.501-.608-6.856-6.745-11.925-13.708-11.324-6.963.602-12.115 6.647-11.507 13.502.607 6.855 6.744 11.925 13.707 11.323z"/><path d="M527.616 154.333c2.955-33.161 1.664-57.402-.631-71.337a79.194 79.194 0 00-37.023-8.858 79.223 79.223 0 00-36.89 9.417c-11.322 6.084-20.942 14.83-28.004 25.456a76.285 76.285 0 00-12.474 35.456 75.95 75.95 0 006.016 37.044c5.076 11.669 13.003 21.92 23.078 29.841 10.074 7.922 21.982 13.267 34.664 15.561a79.42 79.42 0 0038.027-2.414c4.691-13.335 10.263-36.984 13.237-70.166zM20.117 183l-9.594-9.495v-52.813l9.594-9.494h22.587l9.794 9.494v14.835l-2.998 2.967h-4.797l-3.198-2.967v-10.483l-3.198-3.363H24.715l-3.198 3.363v43.912l3.198 3.363h13.592l3.198-3.363V158.67l3.198-2.967H49.5l2.998 2.967v14.835L42.904 183H20.117zM80.882 183l-2.999-2.967v-58.352H65.491l-3.199-3.165v-4.351l3.199-2.967h35.379l3.198 2.967v4.747l-3.198 2.967H88.477v58.154L85.28 183h-4.397zM148.042 183l-2.998-2.967v-24.528l-3.398-3.362h-13.392l-3.398 3.362v24.528L121.658 183h-4.598l-2.998-2.967v-65.868L117.06 111h28.983l9.595 9.495v22.153l-4.198 4.154 4.198 4.154v28.879l-2.999 2.967h-4.597V183zm-23.186-57.956v13.253l3.398 3.362h13.392l3.398-3.362v-13.253l-3.398-3.363h-13.392l-3.398 3.363zM168.23 180.033v-65.868l2.998-3.165h4.597l3.199 3.165v54.989l3.198 3.362h24.785l3.198 3.165v4.55l-3.198 2.967h-35.779l-2.998-3.165zM275.167 183l-3.198-2.967v-24.33l-3.398-3.362h-13.592l-3.198 3.362v24.33L248.583 183h-4.798l-2.998-2.967v-59.341l9.594-9.494h22.587l9.794 9.494v59.341L279.564 183h-4.397zm-23.186-57.956v13.648l3.198 3.165h13.592l3.398-3.165v-13.648l-3.398-3.165h-13.592l-3.198 3.165zM295.355 180.033v-65.868l3.198-3.165h4.597l3.199 3.165v54.989l3.198 3.362h24.785l3.198 3.165v4.55l-3.198 2.967h-35.979l-2.998-3.165zM351.122 183l-2.998-2.967v-58.352h-12.393l-3.198-3.165v-4.351l3.198-2.967h35.379l3.199 2.967v4.747l-3.199 2.967h-12.392v58.154L355.52 183h-4.398z"/></svg>